<?xml version="1.0" encoding="utf-8"?>
<!-- Generator: Adobe Illustrator 24.1.2, SVG Export Plug-In . SVG Version: 6.00 Build 0)  -->
<svg version="1.1" xmlns="http://www.w3.org/2000/svg" xmlns:xlink="http://www.w3.org/1999/xlink" x="0px" y="0px"
	 viewBox="0 0 1280 1024" style="enable-background:new 0 0 1280 1024;" xml:space="preserve">
<style type="text/css">
	.st0{fill:#C8D6C3;}
	.st1{fill:none;stroke:#000000;stroke-width:5;stroke-miterlimit:10;}
	.st2{stroke:#000000;stroke-width:3;stroke-miterlimit:10;}
</style>
<g id="Слой_6">
	<rect class="st0" width="1280" height="1024"/>
</g>
<g id="Слой_2">
	<path class="st1" d="M675.74,151.75c198.55,12.39,355.74,177.34,355.74,379.01c0,209.74-170.02,379.76-379.76,379.76
		c-174.59,0-321.66-117.81-366.05-278.27"/>
	<circle class="st2" cx="286.65" cy="635.24" r="6.07"/>
	<circle class="st2" cx="677.18" cy="151.75" r="6.07"/>
</g>
<g id="Слой_3">
	<g>
		<path d="M625.58,159.77c-8.42-0.85-16.87-1.16-25.31-1.02c-8.44,0.12-16.86,0.94-25.21,2.14c-2.08,0.34-4.18,0.59-6.24,1.01
			l-6.21,1.21c-4.11,0.95-8.22,1.86-12.27,3.05c-8.11,2.26-16.12,4.93-23.87,8.22c-15.5,6.51-30.33,14.84-43.48,25.26
			c-6.52,5.26-12.62,11.07-17.67,17.69c-5.13,6.55-9.04,14.02-11.27,21.97l-0.12,0.41l-0.32,0.26
			c-25.82,21.18-49.56,44.89-70.89,70.57c-21.43,25.61-40.48,53.21-56.87,82.31c-16.34,29.13-30.27,59.64-41.16,91.25l-7.63,23.88
			l-6.58,24.2l-5.43,24.5l-4.3,24.73l3.74-24.84l5-24.63l6.16-24.37l7.38-24.04c10.62-31.8,24.1-62.7,40.52-91.98
			c16.36-29.3,35.41-57.12,56.86-82.94c21.55-25.75,45.5-49.49,71.52-70.69l-0.44,0.68c2.37-8.34,6.48-16.1,11.8-22.84
			c5.23-6.82,11.57-12.66,18.25-17.94c13.49-10.44,28.53-18.66,44.25-25.07c7.85-3.23,15.95-5.85,24.15-8.01
			c4.09-1.13,8.25-1.96,12.4-2.85l6.26-1.1c2.09-0.38,4.2-0.6,6.29-0.9c8.41-1.06,16.87-1.73,25.34-1.7
			C608.73,158.18,617.19,158.73,625.58,159.77z"/>
	</g>
	<g>
		<path d="M479.44,216.78c8.44-5.84,17.22-11.16,26.21-16.12c2.25-1.23,4.51-2.45,6.78-3.65l6.85-3.51l6.93-3.35l6.99-3.23
			l7.07-3.06l7.12-2.94l7.18-2.78c2.41-0.9,4.82-1.77,7.24-2.63c9.68-3.4,19.5-6.41,29.48-8.82c-9.6,3.6-19.17,7.21-28.65,11.01
			c-2.36,0.97-4.72,1.94-7.1,2.88l-7.06,2.96l-7.04,3.01l-7,3.1l-6.98,3.15l-6.93,3.25l-6.91,3.3c-2.28,1.14-4.58,2.26-6.88,3.37
			C497.58,207.27,488.52,212,479.44,216.78z"/>
	</g>
	<g>
		<path d="M454.22,240.24c15.53-3.59,30.83-7.96,45.87-13.08l11.22-4l11.1-4.31l10.98-4.59l10.84-4.91l10.71-5.18l10.56-5.5
			l10.42-5.77l10.26-6.05c13.55-8.28,26.71-17.23,39.41-26.86c-11.96,10.53-24.74,20.18-38.17,28.85l-10.17,6.34l-10.38,5.99
			l-10.59,5.62l-10.77,5.28l-10.95,4.89l-11.1,4.54l-11.25,4.14l-11.38,3.75C485.56,234.15,469.97,237.79,454.22,240.24z"/>
	</g>
	<g>
		<path d="M466.85,161.2c-12.32,10.64-24.42,21.51-35.9,32.98c-5.71,5.76-11.27,11.66-16.47,17.85c-1.3,1.55-2.59,3.1-3.83,4.69
			l-1.88,2.37l-1.81,2.42c-2.41,3.24-4.75,6.57-7.06,9.89c-9.28,13.25-17.32,27.39-21.84,42.91c-4.72,15.45-7.54,31.54-7.74,47.83
			c-0.28-4.06-0.34-8.14-0.21-12.22c0.12-4.08,0.39-8.16,0.86-12.22c0.48-4.06,1.12-8.11,1.91-12.12c0.81-4.01,1.76-8,2.85-11.94
			c2.16-7.91,5.16-15.65,8.92-22.95c3.77-7.3,8.13-14.28,12.81-20.97c2.35-3.35,4.71-6.65,7.17-9.93l1.86-2.46l1.92-2.4
			c1.27-1.61,2.62-3.16,3.95-4.7c5.38-6.18,11.06-12.06,16.99-17.67C441.19,181.29,453.83,170.96,466.85,161.2z"/>
	</g>
	<g>
		<path d="M427.11,211.26l-9.14,13.75c-1.49,2.31-3.04,4.57-4.51,6.89c-1.51,2.29-3.02,4.58-4.48,6.9c-1.52,2.28-2.98,4.6-4.46,6.91
			l-4.43,6.93l-8.78,13.99c1.82-5.24,4.18-10.27,6.75-15.16c1.27-2.46,2.66-4.85,4.04-7.25c1.41-2.38,2.87-4.72,4.36-7.06
			c1.52-2.31,3.06-4.61,4.66-6.86c1.62-2.24,3.23-4.49,4.96-6.65C419.48,219.3,423.08,215.07,427.11,211.26z"/>
	</g>
	<g>
		<path d="M370.28,321.18c2.03-7.6,6.09-14.53,10.58-20.97c4.57-6.42,9.71-12.38,14.72-18.37c2.51-3,4.95-6.03,7.3-9.11
			c2.35-3.12,4.67-6.26,6.95-9.43c4.57-6.33,9.03-12.73,13.26-19.28c8.54-13.05,16.15-26.67,23.18-40.62
			c3.52-6.97,6.92-14.02,10.3-21.07c3.45-7.03,6.75-14.13,10.28-21.12c-2.9,7.28-5.93,14.49-8.92,21.74
			c-3.07,7.21-6.19,14.4-9.54,21.5c-3.32,7.11-6.88,14.11-10.66,21.01c-3.81,6.87-7.86,13.62-12.15,20.21
			c-4.32,6.57-8.8,13.02-13.5,19.31c-2.35,3.14-4.74,6.26-7.15,9.35c-2.43,3.12-5.02,6.09-7.61,9.03
			c-5.18,5.89-10.52,11.59-15.32,17.73C377.18,307.16,372.94,313.8,370.28,321.18z"/>
	</g>
	<g>
		<path d="M551.8,228.25c-5.94,4.39-12.42,8.07-19.21,11.03c-6.77,3.01-13.8,5.41-20.91,7.49c-14.25,4.09-28.82,6.78-43.05,10.54
			c-7.12,1.86-14.14,4.02-20.99,6.62c-6.85,2.59-13.48,5.75-19.89,9.29c-6.4,3.56-12.52,7.61-18.36,12.02
			c-5.82,4.44-11.31,9.3-16.44,14.51l-1.28-2.52c15.08-2.26,30.02-5.74,45.17-8.39c7.6-1.34,15.2-2.27,22.74-3.51
			c3.78-0.6,7.54-1.25,11.29-1.98c3.75-0.7,7.48-1.48,11.19-2.35c14.8-3.47,29.34-8.78,41.86-17.5c1.59-1.04,3.08-2.22,4.61-3.35
			c1.46-1.22,2.98-2.37,4.35-3.69c2.86-2.52,5.45-5.32,7.88-8.26c2.45-2.93,4.52-6.15,6.42-9.46l1.34-2.53
			c0.46-0.84,0.8-1.74,1.2-2.6c0.4-0.87,0.79-1.75,1.09-2.64L551.8,228.25z M551.8,228.25c-0.61,1.75-1.09,3.7-1.86,5.44
			c-0.37,0.89-0.67,1.8-1.1,2.66l-1.24,2.6c-1.81,3.39-3.8,6.71-6.19,9.74c-2.36,3.04-4.91,5.96-7.73,8.6
			c-1.36,1.38-2.86,2.59-4.31,3.87c-1.52,1.19-2.99,2.44-4.58,3.55c-6.25,4.55-13.1,8.24-20.2,11.28c-3.56,1.5-7.18,2.84-10.85,4.06
			c-3.67,1.18-7.37,2.28-11.11,3.22c-14.93,3.9-30.29,5.67-45.3,8.27c-15.04,2.69-29.96,6.34-45.21,8.63l-4.46,0.67l3.18-3.18
			c5.27-5.28,10.9-10.2,16.85-14.68c5.97-4.46,12.23-8.54,18.76-12.12c6.54-3.56,13.3-6.73,20.29-9.33
			c6.97-2.64,14.14-4.66,21.34-6.41c14.41-3.51,28.98-5.96,43.22-9.73C525.53,241.73,539.54,236.57,551.8,228.25z"/>
	</g>
	<g>
		<path d="M420.17,285.65c6.48-4.69,14.03-7.82,21.69-10.12c3.83-1.18,7.73-2.09,11.63-2.97c3.9-0.85,7.82-1.58,11.71-2.34
			c3.9-0.71,7.79-1.45,11.65-2.28c3.87-0.78,7.69-1.73,11.49-2.77c7.57-2.13,14.96-4.95,21.77-9.11
			c-6.09,5.19-13.49,8.76-21.07,11.34c-3.79,1.33-7.68,2.34-11.56,3.3c-3.89,0.92-7.81,1.69-11.72,2.45
			c-3.91,0.71-7.81,1.42-11.7,2.16c-3.89,0.71-7.75,1.55-11.59,2.45C434.81,279.63,427.28,282.04,420.17,285.65z"/>
	</g>
	<g>
		<path d="M349.81,253.38c-0.77,3.6-1.65,7.08-2.66,10.61c-1.04,3.5-2.22,6.96-3.48,10.38c-2.55,6.85-5.52,13.54-8.78,20.08
			c-3.32,6.51-6.87,12.91-10.76,19.11c-3.86,6.2-7.89,12.27-11.47,18.56c-3.56,6.28-6.72,12.8-8.56,19.69
			c-0.45,1.72-0.85,3.46-1.12,5.21c-0.24,1.77-0.52,3.53-0.62,5.32c-0.32,3.56-0.34,7.16-0.21,10.75c0.1,3.59,0.48,7.18,0.92,10.74
			c0.52,3.56,1.13,7.11,1.97,10.6c0.85,3.49,1.8,6.96,3.04,10.32c1.21,3.37,2.6,6.68,4.31,9.78l0.31,0.59l0.16,0.29l0.08,0.15
			l0.04,0.07c0.33,0.97,0.16-1.48-2.49-0.05c-0.38,2.46-0.12,0.63-0.21,1.16l-0.02-0.09l-0.04-0.17l-0.09-0.34l-0.18-0.69
			c-0.22-0.92-0.43-1.84-0.58-2.77c-0.32-1.86-0.55-3.73-0.64-5.6c-0.21-3.75-0.01-7.49,0.46-11.18c0.97-7.38,3.02-14.55,5.73-21.41
			c1.37-3.43,2.91-6.79,4.61-10.06c1.71-3.28,3.55-6.43,5.44-9.57c3.77-6.28,7.74-12.39,11.53-18.58
			c3.76-6.2,7.34-12.52,10.14-19.18c2.82-6.64,4.87-13.62,6.13-20.73c1.25-7.12,1.71-14.4,1.18-21.63
			c-0.08-1.81-0.34-3.61-0.53-5.42l-0.42-2.69c-0.13-0.9-0.29-1.79-0.48-2.68l-0.53-2.67l-0.66-2.65l-0.33-1.33l-0.38-1.29
			C350.35,255.16,350.09,254.27,349.81,253.38z M349.81,253.38c5.1,13.67,6.58,28.71,4.43,43.24c-1.13,7.26-3.08,14.4-5.83,21.23
			c-2.72,6.85-6.23,13.32-9.9,19.65c-3.67,6.33-7.59,12.48-11.27,18.73c-1.84,3.12-3.63,6.28-5.27,9.48c-1.63,3.2-3.1,6.49-4.4,9.84
			c-2.61,6.69-4.58,13.65-5.48,20.74c-0.44,3.54-0.62,7.1-0.41,10.64c0.09,1.77,0.31,3.52,0.62,5.25c0.14,0.87,0.34,1.72,0.55,2.57
			l0.17,0.64l0.08,0.32l0.04,0.16l0.02,0.08c-0.08,0.58,0.22-1.19-0.18,1.32c-2.72,1.49-2.91-1.06-2.6-0.13l-0.04-0.08l-0.08-0.15
			l-0.17-0.31l-0.33-0.62c-1.8-3.28-3.23-6.72-4.47-10.21c-1.27-3.48-2.24-7.06-3.1-10.65c-0.86-3.59-1.47-7.24-1.99-10.89
			c-0.44-3.66-0.83-7.34-0.9-11.03c-0.1-3.69-0.05-7.4,0.31-11.09c0.13-1.85,0.43-3.69,0.7-5.53c0.3-1.85,0.74-3.66,1.23-5.46
			c2-7.2,5.34-13.88,9.09-20.17c3.76-6.31,7.92-12.31,11.88-18.41c3.98-6.08,7.62-12.36,11.05-18.77
			C340.46,280.99,346.17,267.51,349.81,253.38z"/>
	</g>
	<g>
		<path d="M328.62,385.36c11.72-3.74,23.33-7.8,34.7-12.44c11.41-4.54,22.63-9.54,33.6-15.02c10.96-5.5,21.77-11.32,32.26-17.66
			c10.52-6.29,20.78-13.02,30.74-20.16l1.11,2.69l-35.4,5.68c-5.89,0.94-11.83,1.83-17.69,2.8c-5.86,1-11.69,2.14-17.42,3.65
			c-5.73,1.51-11.36,3.4-16.81,5.72c-5.46,2.32-10.75,5.03-15.71,8.28c-4.97,3.22-9.64,6.95-13.57,11.4
			c-3.9,4.44-7.08,9.64-8.59,15.45c0.62-2.93,1.65-5.77,3.01-8.45c1.38-2.67,3.08-5.17,4.98-7.51c3.82-4.67,8.43-8.64,13.35-12.1
			c4.95-3.44,10.29-6.31,15.76-8.79c5.49-2.49,11.17-4.55,16.96-6.21c11.59-3.4,23.53-4.97,35.27-7.03l35.37-5.85l6.36-1.05
			l-5.24,3.75c-10.04,7.17-20.4,13.91-31.02,20.18c-10.65,6.22-21.53,12.07-32.7,17.3c-11.16,5.25-22.53,10.04-34.08,14.32
			C352.26,378.49,340.53,382.28,328.62,385.36z"/>
	</g>
	<g>
		<path d="M258.5,389.54c1.71,2.11,3,4.58,3.86,7.17c0.88,2.59,1.49,5.27,1.87,7.98c0.39,2.71,0.6,5.45,0.62,8.19
			c0.01,2.75-0.2,5.49-0.5,8.21c-0.62,5.44-1.64,10.78-2.3,16.12c-0.74,5.33-1.12,10.7-1.25,16.08c-0.13,5.37,0.1,10.75,0.63,16.09
			c0.53,5.34,1.38,10.66,2.62,15.88c1.24,5.22,2.74,10.39,4.64,15.41c1.9,5.02,4.11,9.92,6.59,14.68l-2.4-0.07
			c8.07-13.54,17.18-26.47,27.21-38.64c5.01-6.08,10.26-11.98,15.71-17.68c5.46-5.69,11.14-11.16,16.99-16.45
			c23.42-21.14,49.65-38.96,77.23-54.09l3.63-1.99l-1.85,3.71c-7.15,14.34-15.34,28.18-24.66,41.22
			c-9.36,13.02-19.93,25.19-31.8,35.98l-4.51,3.98l-4.65,3.82c-1.56,1.26-3.17,2.45-4.75,3.68c-1.63,1.17-3.24,2.36-4.89,3.5
			c-6.59,4.56-13.43,8.72-20.4,12.65c-13.94,7.84-28.34,14.74-42.42,22.27c13.87-7.91,28.17-15.06,41.94-23.12
			c6.88-4.03,13.61-8.3,20.07-12.95c6.45-4.65,12.64-9.66,18.46-15.08c11.65-10.82,22.01-23,31.15-36
			c9.12-13.03,17.05-26.86,24.14-41.1l1.79,1.71c-27.39,15.15-53.37,32.95-76.52,53.99c-5.79,5.25-11.38,10.71-16.79,16.35
			c-5.42,5.63-10.63,11.45-15.62,17.46c-9.98,12.02-19.05,24.8-27.1,38.19l-1.27,2.11l-1.13-2.18c-2.52-4.87-4.75-9.89-6.68-15.02
			c-1.93-5.13-3.44-10.42-4.68-15.75c-1.25-5.34-2.1-10.76-2.62-16.22c-0.51-5.45-0.77-10.94-0.56-16.41
			c0.19-5.47,0.64-10.93,1.45-16.34c0.83-5.41,2.05-10.7,2.83-16.02c0.79-5.31,1.07-10.69,0.61-16.05c-0.23-2.68-0.67-5.34-1.4-7.93
			C261.09,394.3,260.06,391.77,258.5,389.54z"/>
	</g>
	<g>
		<path d="M281.42,491.23c2.89-8.74,4.4-17.8,4.68-26.87l-0.02-6.8c-0.16-2.26-0.28-4.52-0.47-6.78l-0.88-6.73l-1.32-6.66l-1.7-6.57
			l-2.13-6.45l-2.51-6.31l-2.91-6.15c-4.16-8.07-9.37-15.62-15.63-22.37c7.13,5.84,13.05,13.2,17.69,21.25
			c1.09,2.05,2.21,4.09,3.25,6.18l2.78,6.41l2.28,6.6l1.82,6.75l1.29,6.87c0.29,2.31,0.56,4.63,0.81,6.94
			c0.12,2.33,0.18,4.66,0.27,6.98c-0.03,2.33-0.17,4.65-0.27,6.98C287.71,473.76,285.47,482.95,281.42,491.23z"/>
	</g>
	<g>
		<path d="M271.36,427.28c1.39,4.27,2.34,8.66,3.04,13.08c0.37,2.21,0.61,4.44,0.87,6.66c0.22,2.23,0.36,4.46,0.5,6.7
			c0.23,4.47,0.19,8.95-0.05,13.42c-0.25,4.47-0.73,8.93-1.63,13.33c-0.35-4.48-0.52-8.91-0.71-13.34l-0.6-13.26
			c-0.08-2.21-0.22-4.41-0.33-6.62l-0.36-6.63C271.83,436.19,271.53,431.77,271.36,427.28z"/>
	</g>
	<g>
		<path d="M309.07,483.22c5.01-4.57,10.17-8.94,15.33-13.29l7.73-6.53c2.58-2.17,5.16-4.33,7.71-6.54c2.58-2.17,5.13-4.37,7.66-6.58
			c2.57-2.18,5.07-4.44,7.62-6.64l15.17-13.44c-4.2,5.33-8.78,10.34-13.57,15.14c-2.37,2.42-4.85,4.73-7.33,7.05
			c-2.5,2.29-5.05,4.53-7.61,6.74c-2.6,2.18-5.21,4.34-7.86,6.45c-2.67,2.08-5.33,4.17-8.08,6.17
			C320.39,475.78,314.83,479.63,309.07,483.22z"/>
	</g>
	<g>
		<path d="M377.22,389.54c-8.47,3.47-16.73,7.31-24.64,11.74c-1.01,0.52-1.97,1.13-2.94,1.71l-2.92,1.73
			c-1.96,1.14-3.81,2.45-5.71,3.66c-1.9,1.22-3.71,2.59-5.57,3.87c-0.94,0.63-1.82,1.34-2.71,2.03l-2.67,2.08
			c-1.8,1.37-3.48,2.88-5.23,4.32c-1.73,1.45-3.33,3.05-5.02,4.56c-1.67,1.53-3.22,3.17-4.84,4.76c-0.82,0.78-1.54,1.66-2.32,2.48
			l-2.31,2.49c-6.03,6.76-11.48,14.06-16.45,21.74c3.88-8.29,8.87-16.1,14.67-23.26c1.49-1.76,2.93-3.56,4.5-5.25
			c1.6-1.66,3.13-3.39,4.78-5l2.51-2.38c0.84-0.79,1.66-1.6,2.55-2.33c1.77-1.48,3.46-3.05,5.29-4.46l2.75-2.1
			c0.92-0.7,1.83-1.41,2.79-2.05l2.85-1.97c0.95-0.66,1.89-1.32,2.89-1.9c3.91-2.44,7.9-4.75,12.03-6.79
			C359.72,395.11,368.35,391.83,377.22,389.54z"/>
	</g>
	<g>
		<path d="M410.35,341c-5.67,1.75-11.27,3.53-16.79,5.53c-1.37,0.53-2.74,1.05-4.12,1.54l-4.08,1.62c-1.34,0.58-2.7,1.12-4.05,1.68
			l-4.01,1.78l-3.99,1.83l-3.94,1.94l-3.91,1.99c-1.28,0.71-2.57,1.4-3.87,2.08c-5.14,2.82-10.18,5.84-15.25,8.94
			c4.31-4.09,9.05-7.71,14.05-10.95c1.25-0.8,2.52-1.59,3.79-2.36l3.88-2.22l3.97-2.05l4.03-1.93l4.11-1.75
			c1.39-0.54,2.77-1.1,4.17-1.62l4.23-1.45c1.42-0.45,2.85-0.87,4.28-1.28C398.58,342.7,404.43,341.53,410.35,341z"/>
	</g>
	<g>
		<path d="M336.23,310.16c-1.18,6.01-3.64,11.74-6.47,17.15c-1.39,2.73-2.95,5.36-4.46,7.99c-1.54,2.62-3.12,5.2-4.62,7.82
			c-1.54,2.59-3,5.21-4.35,7.88c-1.39,2.65-2.6,5.38-3.71,8.15c-2.16,5.55-3.62,11.4-3.77,17.51c-1.12-6.04-0.28-12.39,1.55-18.28
			c0.89-2.97,2.09-5.83,3.37-8.63c1.32-2.79,2.79-5.49,4.31-8.15c1.57-2.63,3.17-5.22,4.79-7.78c1.65-2.55,3.24-5.12,4.85-7.67
			C330.9,321.03,333.86,315.79,336.23,310.16z"/>
	</g>
</g>
<g id="Слой_4">
	<g>
		<g>
			<path d="M543.8,450.9h25.1v2.63c-7.33,0.66-8.65,1.32-8.65,9.68v16.17c1.88-0.19,4.04-1.69,6.77-4.32
				c5.26-4.98,11.56-11.37,15.88-16.26c2.82-3.2,2.54-4.42-1.5-4.98l-2.63-0.28v-2.63h22.84v2.63c-7.05,0.85-9.49,1.32-15.79,7.8
				c-2.82,2.73-10.15,9.87-16.17,15.79c7.14,8.46,17.58,20.49,22.46,25.66c4.79,5.17,6.02,5.92,11.84,6.58V512h-15.04
				c-7.24-8.18-14.85-17.29-23.4-27.26c-2.16-2.63-3.76-2.82-5.26-2.73v17.86c0,8.18,0.85,8.84,8.65,9.49V512h-25.1v-2.63
				c7.71-0.66,8.46-1.32,8.46-9.49v-36.66c0-8.46-0.66-9.12-8.46-9.68V450.9z"/>
			<path d="M683.01,453.54c-6.58,0.75-7.71,1.79-11.47,7.8c-4.23,6.86-7.71,13.35-12.31,21.71c-1.13,2.16-1.41,3.29-1.41,5.55v11.56
				c0,7.8,0.85,8.37,9.59,9.21V512h-26.98v-2.63c8.55-1.13,9.21-1.32,9.21-9.21v-12.13c0-1.88-0.38-2.73-1.88-5.45
				c-3.29-6.11-6.49-12.03-11.56-20.87c-3.67-6.39-4.61-7.52-11-8.18v-2.63h23.12v2.63c-6.77,0.94-6.39,2.16-4.7,5.36
				c3.95,7.24,8.37,15.7,12.31,22.75c3.38-6.3,8.74-16.54,11.37-21.71c2.16-4.7,1.88-5.64-5.55-6.39v-2.63h21.24V453.54z"/>
			<path d="M775.13,453.54c-6.02,0.66-7.99,1.6-8.27,5.92c-0.09,3.01-0.28,6.96-0.28,15.7v37.69H763l-40.23-49.16v23.5
				c0,8.46,0.28,12.69,0.47,15.42c0.19,4.79,2.54,6.2,9.31,6.77V512h-22.84v-2.63c5.83-0.47,8.08-1.88,8.46-6.49
				c0.28-3.01,0.47-7.24,0.47-15.79v-23.97c0-2.63-0.19-4.14-1.88-6.2c-1.79-2.35-3.76-2.91-8.37-3.38v-2.63h14.1l39.85,47.28
				v-23.03c0-8.74-0.19-12.78-0.47-15.6c-0.28-4.23-2.44-5.55-9.96-6.02v-2.63h23.22V453.54z"/>
			<path d="M411.36,578.37c-0.85-2.63-1.6-4.89-2.91-6.96c-1.79-3.2-3.2-3.95-8.46-3.95h-10.06c-2.73,0-3.01,0.28-3.01,3.01v21.71
				h11.66c6.77,0,7.24-1.13,8.65-7.71h2.82v19.64h-2.91c-1.22-6.58-1.88-8.08-8.55-8.08h-11.66v16.82c0,8.18,0.94,8.55,9.49,9.31
				v2.63h-26.13v-2.63c7.61-0.56,8.46-1.22,8.46-9.31v-37.22c0-8.18-0.94-8.55-8.46-9.31v-2.63h29.8c8.46,0,11.66-0.09,13.25-0.19
				c0.09,3.38,0.47,9.96,0.94,14.48L411.36,578.37z"/>
			<path d="M496.24,609.2c-0.56,2.91-3.38,12.69-4.32,15.6h-43.71v-2.63c8.55-0.85,9.31-1.32,9.31-9.31v-37.32
				c0-7.99-0.94-8.46-8.46-9.21v-2.63h25.19v2.63c-7.52,0.75-8.55,1.13-8.55,9.21v38.26c0,5.73,0.75,7.05,6.11,7.14
				c0.09,0,6.86,0.09,7.43,0.09c4.79,0,6.2-0.56,8.37-2.91c2.35-2.44,4.32-6.2,5.73-9.68L496.24,609.2z"/>
			<path d="M561.47,562.39c16.07,0,30.45,12.31,30.45,31.02c0,20.21-13.72,32.8-31.02,32.8c-18.05,0-31.21-13.72-31.21-31.39
				C529.7,577.99,541.64,562.39,561.47,562.39z M559.59,565.87c-10.53,0-20.11,8.84-20.11,26.41c0,17.48,9.59,30.36,22.93,30.36
				c11.37,0,19.93-8.46,19.93-26.6C582.34,576.3,571.9,565.87,559.59,565.87z"/>
			<path d="M712.05,566.34c-6.58,0.94-7.52,1.69-10.06,9.4c-3.1,9.4-10.62,33.27-15.79,50.1h-3.2
				c-4.89-14.66-11.19-32.8-16.07-46.72c-5.45,16.17-11,32.24-15.88,46.72h-3.1c-4.7-16.17-10.06-33.74-15.13-50.19
				c-2.44-7.61-3.48-8.65-9.59-9.31v-2.63h23.22v2.63c-6.96,0.75-7.14,1.79-5.83,6.49c3.67,12.69,7.43,25.19,11.28,38.44
				c5.17-14.95,10.81-31.3,15.6-46.71h3.01c5.26,15.98,10.53,30.83,15.98,46.81c3.95-12.5,9.31-29.23,11.37-37.41
				c1.41-5.45,0.66-6.67-7.33-7.61v-2.63h21.52V566.34z"/>
			<path d="M790.54,609.86c-0.56,2.44-3.1,12.13-4.04,14.95h-45.68v-2.63c8.74-0.66,9.4-1.5,9.4-9.21v-37.13
				c0-8.37-1.03-8.84-8.08-9.49v-2.63h28.76c8.83,0,12.5-0.09,13.63-0.19c0.09,2.35,0.47,9.4,0.85,14.38l-2.82,0.47
				c-0.85-3.2-1.79-5.17-2.82-7.14c-1.5-3.1-3.67-3.76-9.31-3.76h-8.93c-2.91,0-3.1,0.28-3.1,3.01v20.77h10.43
				c7.05,0,7.52-1.41,8.65-7.8h2.91v19.36h-2.91c-1.22-6.77-1.97-7.71-8.74-7.71H758.4v18.71c0,6.58,2.07,7.14,6.77,7.24h8.74
				c5.73,0,6.67-0.85,8.74-3.29c1.79-1.97,3.76-5.83,5.08-8.65L790.54,609.86z"/>
			<path d="M880.03,625.55c-1.22,0-2.26-0.09-3.48-0.19c-6.86-0.47-10.53-2.26-14.66-8.08c-3.48-4.79-6.86-10.71-9.87-15.51
				c-1.88-3.01-3.1-3.57-7.9-3.57h-3.29v14.76c0,7.99,1.03,8.46,8.55,9.21v2.63h-25.1v-2.63c7.8-0.85,8.46-1.22,8.46-9.21v-37.5
				c0-7.99-1.03-8.27-8.46-9.12v-2.63h23.97c6.86,0,11.47,0.85,15.04,3.2c3.85,2.44,6.39,6.67,6.39,12.41
				c0,8.08-5.17,13.16-12.13,16.17c1.69,2.91,5.73,9.21,8.55,13.44c3.48,4.98,5.26,7.33,7.43,9.68c2.54,2.73,4.7,3.76,6.86,4.32
				L880.03,625.55z M845.35,595c4.89,0,7.99-0.75,10.34-2.73c3.67-2.73,5.17-6.49,5.17-11.56c0-10.06-6.67-13.72-13.91-13.72
				c-2.73,0-4.32,0.38-4.98,0.94c-0.85,0.66-1.13,1.6-1.13,4.04V595H845.35z"/>
			<path d="M941.69,577.99c-1.6-6.2-4.23-12.31-13.07-12.31c-7.33,0-9.87,5.36-9.87,10.25c0,6.49,4.14,9.78,11.94,13.82
				c11.28,5.83,16.17,10.15,16.17,19.08c0,9.87-8.55,17.39-20.68,17.39c-5.64,0-10.53-1.6-14.38-3.1c-0.75-2.63-1.88-9.02-2.54-14.1
				l2.91-0.75c1.88,6.3,6.02,14.47,15.79,14.47c6.77,0,10.9-4.7,10.9-10.81c0-7.24-3.85-10.15-12.13-14.66
				c-9.87-5.36-15.42-9.87-15.42-18.61c0-8.37,6.96-16.26,19.36-16.26c5.26,0,10.43,1.41,12.41,1.79c0.38,3.38,0.75,7.14,1.5,13.25
				L941.69,577.99z"/>
		</g>
	</g>
</g>
</svg>
